<svg xmlns="http://www.w3.org/2000/svg" xmlns:xlink="http://www.w3.org/1999/xlink" width="194.288" height="35.934" viewBox="0 0 194.288 35.934"><defs><radialGradient id="a" cx="0.5" cy="0.5" r="0.5" gradientUnits="objectBoundingBox"><stop offset="0" stop-color="#2acae0"/><stop offset="1" stop-color="#2acae0"/></radialGradient><radialGradient id="c" cx="0.5" cy="0.5" r="0.5" gradientUnits="objectBoundingBox"><stop offset="0" stop-color="#fff"/><stop offset="1" stop-color="#fff"/></radialGradient></defs><g transform="translate(-4.888 -8.49)"><g transform="translate(20.93 -7.291)"><g transform="translate(-19.073 -0.004)"><g transform="translate(54.072 16.834)"><g transform="translate(0 0)"><path d="M119.208,6.113V7.569h0a5.66,5.66,0,0,1-.2,1.62h0a3.086,3.086,0,0,1-.576,1.113h0a2.219,2.219,0,0,1-.893.646h0a3.12,3.12,0,0,1-1.153.2h0a3.126,3.126,0,0,1-1.154-.2h0a2.247,2.247,0,0,1-.9-.646h0a3.085,3.085,0,0,1-.58-1.113h0a5.575,5.575,0,0,1-.207-1.62h0V6.113h0a5.66,5.66,0,0,1,.2-1.62h0a3.015,3.015,0,0,1,.578-1.107h0a2.262,2.262,0,0,1,.892-.639h0a3.11,3.11,0,0,1,1.151-.2h0a3.137,3.137,0,0,1,1.154.2h0a2.265,2.265,0,0,1,.895.639h0A3.044,3.044,0,0,1,119,4.493h0A5.576,5.576,0,0,1,119.208,6.113Zm-1.661,1.675V5.877h0a4.747,4.747,0,0,0-.078-.938h0a1.758,1.758,0,0,0-.23-.613h0a.911.911,0,0,0-.369-.337h0a1.144,1.144,0,0,0-.5-.1h0a1.123,1.123,0,0,0-.492.1h0a.888.888,0,0,0-.369.337h0a1.8,1.8,0,0,0-.228.613h0a4.745,4.745,0,0,0-.078.938h0v1.91h0a4.716,4.716,0,0,0,.081.95h0a1.909,1.909,0,0,0,.231.624h0a.874.874,0,0,0,.369.343h0a1.146,1.146,0,0,0,.5.1h0a1.144,1.144,0,0,0,.494-.1h0a.863.863,0,0,0,.369-.343h0a1.9,1.9,0,0,0,.223-.624h0a4.87,4.87,0,0,0,.078-.95ZM108.3,2.654V7.881h.95v1.34h-.95v1.813h-1.661V9.221H103.2l-.075-1.047,3.494-5.52Zm-1.773,2.459L104.782,7.88h1.853V4.921l-.11.19Zm3.77,5.105h0a.934.934,0,0,1,.066-.353h0a.8.8,0,0,1,.19-.282h0a.91.91,0,0,1,.3-.185h0a1.035,1.035,0,0,1,.387-.069h0a1.054,1.054,0,0,1,.388.069h0a.913.913,0,0,1,.3.185h0a.8.8,0,0,1,.19.282h0a.933.933,0,0,1,.066.353h0a.914.914,0,0,1-.066.351h0a.8.8,0,0,1-.19.277h0a.873.873,0,0,1-.3.185h0a1.1,1.1,0,0,1-.388.066h0a1.081,1.081,0,0,1-.387-.066h0a.87.87,0,0,1-.3-.185h0a.794.794,0,0,1-.19-.277h0a.913.913,0,0,1-.066-.351Z" transform="translate(-34.707 -0.854)" fill="#30b9ef"/><path d="M9.583,21.7H7.775a4.875,4.875,0,0,1-1.794-.317h0a4.059,4.059,0,0,1-1.393-.894h0a3.944,3.944,0,0,1-.9-1.387h0A4.913,4.913,0,0,1,3.373,17.3h0V7.775h0A4.913,4.913,0,0,1,3.69,5.967h0a3.944,3.944,0,0,1,.9-1.384h0a4.059,4.059,0,0,1,1.39-.893h0a4.875,4.875,0,0,1,1.794-.317h2.571a4.84,4.84,0,0,1,1.781.317h0a3.993,3.993,0,0,1,1.384.894h0a3.986,3.986,0,0,1,.894,1.384h0a4.913,4.913,0,0,1,.317,1.808h0V17.3h0a4.913,4.913,0,0,1-.317,1.808h0a3.944,3.944,0,0,1-.9,1.384h0a4.059,4.059,0,0,1-1.393.894h0a4.373,4.373,0,0,1-.521.167l3,2.366a7.012,7.012,0,0,0,.667-.467h0a7.164,7.164,0,0,0,1.516-1.633h0a7.589,7.589,0,0,0,.975-2.074h0A8.47,8.47,0,0,0,18.1,17.3h0V7.775h0a8.187,8.187,0,0,0-.583-3.117h0A7.308,7.308,0,0,0,15.892,2.2h0A7.463,7.463,0,0,0,13.437.583h0A8.049,8.049,0,0,0,10.346,0H7.775a8.1,8.1,0,0,0-3.1.583h0A7.456,7.456,0,0,0,2.214,2.2h0A7.4,7.4,0,0,0,.589,4.658h0A8.107,8.107,0,0,0,0,7.775H0V17.3H0a8.088,8.088,0,0,0,.589,3.123h0a7.485,7.485,0,0,0,1.625,2.459h0a7.32,7.32,0,0,0,2.462,1.614h0a8.184,8.184,0,0,0,3.1.577H9.1l3.24,2.607h4.889Zm30.452.087v-2.1h0a2.96,2.96,0,0,1,.227-1.185h0a2.768,2.768,0,0,1,.615-.9h0a2.675,2.675,0,0,1,.913-.577h0a3.143,3.143,0,0,1,1.134-.2H45.5v4.962Zm-6.323-8.331v12.31h0a1.733,1.733,0,0,1-.129.673h0a1.653,1.653,0,0,1-.357.538h0a1.655,1.655,0,0,1-.53.356h0a1.661,1.661,0,0,1-.655.129h-4.3a6.752,6.752,0,0,1-1.328-.142h0a6.273,6.273,0,0,1-1.393-.461h0a7.186,7.186,0,0,1-1.328-.8h0a5.121,5.121,0,0,1-1.121-1.179h0a6.038,6.038,0,0,1-.771-1.6h0a6.669,6.669,0,0,1-.292-2.047h0V13.458h3.37v7.775h0a2.967,2.967,0,0,0,.226,1.185h0a2.756,2.756,0,0,0,.615.9h0a2.675,2.675,0,0,0,.913.577h0a3.152,3.152,0,0,0,1.134.2h2.583V13.458ZM61.506,24.1v3.369h-4.82a5.412,5.412,0,0,1-1.549-.246h0A4.586,4.586,0,0,1,53.6,26.41h0a4.435,4.435,0,0,1-1.179-1.464h0a4.764,4.764,0,0,1-.467-2.209h0V13.449h3.369v9.287h0a1.3,1.3,0,0,0,.388.991h0a1.357,1.357,0,0,0,.972.369h4.82Zm6.912-10.639V27.465H65.049V13.458Zm16.1,9.279h0A5.145,5.145,0,0,1,84.3,24.3h0a4.547,4.547,0,0,1-.583,1.218h0a3.967,3.967,0,0,1-.842.894h0a4.925,4.925,0,0,1-1,.6h0a5.173,5.173,0,0,1-1.063.343h0a5.074,5.074,0,0,1-1.015.11H72V24.1H79.77a1.406,1.406,0,0,0,1.036-.35h0a1.366,1.366,0,0,0,.351-1.015h0A1.233,1.233,0,0,0,79.8,21.384H75.9A4.2,4.2,0,0,1,74.006,21h0a3.867,3.867,0,0,1-1.263-.971h0a3.7,3.7,0,0,1-.7-1.257h0a4.176,4.176,0,0,1-.214-1.257h0a4.075,4.075,0,0,1,.4-1.9h0a3.8,3.8,0,0,1,1.015-1.251h0a3.977,3.977,0,0,1,1.322-.694h0a4.661,4.661,0,0,1,1.335-.214h8.28v3.375H75.924a1.147,1.147,0,0,0-.408.058h0a.479.479,0,0,0-.22.156h0a.425.425,0,0,0-.084.207h0a1.785,1.785,0,0,0-.013.214h0a.784.784,0,0,0,.077.325h0a.414.414,0,0,0,.161.169h0a.518.518,0,0,0,.22.058h0q.124.006.24.006h3.895a4.77,4.77,0,0,1,2.2.467h0a4.38,4.38,0,0,1,1.464,1.173h0a4.648,4.648,0,0,1,.81,1.535h0a5.312,5.312,0,0,1,.253,1.542Zm-44.485,2.1v2.631H36.666V19.691h0a6.683,6.683,0,0,1,.292-2.047h0a6.051,6.051,0,0,1,.771-1.6h0a5.114,5.114,0,0,1,1.121-1.18h0a7.235,7.235,0,0,1,1.328-.8h0a6.281,6.281,0,0,1,1.393-.461h0a6.719,6.719,0,0,1,1.328-.143h4.3a1.655,1.655,0,0,1,.654.129h0a1.672,1.672,0,0,1,.531.357h0a1.637,1.637,0,0,1,.356.538h0a1.738,1.738,0,0,1,.129.674h0V27.465H45.5V24.834Z" transform="translate(0.001 0)" fill="#fff" fill-rule="evenodd"/></g></g><g transform="translate(149.646 33.665)"><path d="M1013.344,5095.913h-2.072v-8s-.012-2.624,2.4-2.649,7.166,0,7.166,0v1.811l-6.452.083a1,1,0,0,0-1.045,1.13v1.585h6.128v2.021h-6.128Z" transform="translate(-1011.272 -5085.188)" fill="#fff"/><path d="M1114.908,5095.755h-2.049v-10.679h2.315l3.253,9.154V5094l3.409-8.928h2.48v10.679h-2.163v-6.138l-2.339,6.138H1116.9l-1.994-6.138Z" transform="translate(-1100.617 -5085.03)" fill="#fff"/><path d="M1232.279,5093.172v2.254h-7.132a2.485,2.485,0,0,1-2.427-2.515c-.139-2.5,0-5.5,0-5.5s.129-2.583,2.521-2.7,7.038,0,7.038,0v2.34h-6.459a1.069,1.069,0,0,0-1.15,1.142c.012,1.206,0,.861,0,.861h6.273v2.216h-6.273l-.092.915a1.006,1.006,0,0,0,1.056.985Z" transform="translate(-1196.657 -5084.662)" fill="#fff"/><path d="M1329.285,4951.167h2.939l-1.455-4.056h.276l-1.074,3.58-.224.642-1.458,4.625-2.123-.1,3.8-10.682h1.993l3.821,10.682-2.007.1-1.067-2.659h-3.672" transform="translate(-1288.113 -4945.093)" fill="#fff"/></g></g></g><g transform="translate(5.2 22.619) rotate(-44.028)"><g transform="translate(0 0)"><path d="M12.54,22.527l.292-2.474a10.21,10.21,0,0,0,2.775-.784l1.541,1.954,4.07-3.211-1.541-1.954a10.317,10.317,0,0,0,1.411-2.52l2.469.288.613-5.147L21.7,8.387a10.173,10.173,0,0,0-.789-2.776L22.867,4.07,19.655,0,17.7,1.536A10.641,10.641,0,0,0,16.336.659l-.891,4a6.436,6.436,0,0,1,1.1,1.1A6.5,6.5,0,1,1,5.11,11.3L1.555,12.907a10,10,0,0,0,.4,1.053L0,15.5,3.211,19.57l1.954-1.541a10.232,10.232,0,0,0,2.521,1.412L7.394,21.91l5.152.613Z" transform="translate(2.023 8.985)" stroke="#fff" stroke-width="0.4" fill="url(#a)"/><path d="M.575,16.656l2.468-.268a10.29,10.29,0,0,0,.767,1.6l3.1-2.363A6.5,6.5,0,0,1,15.5,6.831l-.028-4.1a10.37,10.37,0,0,0-1.243-.255L13.961,0,8.8.561l.265,2.474A10.135,10.135,0,0,0,6.539,4.423L4.6,2.863,1.35,6.906,3.29,8.465a9.986,9.986,0,0,0-.812,2.771L0,11.505l.562,5.156Z" transform="translate(0 0)" stroke="#fff" stroke-width="0.4" fill="url(#a)"/><path d="M0,3.281,4.127,2.089,2.535,0Z" transform="translate(18.648 3.017)" stroke="#fff" stroke-width="0.4" fill="url(#c)"/><path d="M0,2.292l4.66.195L3.922,0Z" transform="translate(8.345 15.841)" stroke="#fff" stroke-width="0.4" fill="url(#c)"/></g></g></g></svg>